<svg xmlns="http://www.w3.org/2000/svg" xmlns:xlink="http://www.w3.org/1999/xlink" fill="none" version="1.1" width="37" height="37" viewBox="0 0 37 37"><defs><clipPath id="master_svg0_10_5538"><rect x="37" y="0" width="37" height="37" rx="0"/></clipPath></defs><g transform="matrix(0,1,-1,0,37,-37)" clip-path="url(#master_svg0_10_5538)"><g><g transform="matrix(0,1,-1,0,59.35410451889038,-53.958351612091064)"><path d="M56.65622806549072,3.854126453399658C56.65622806549072,3.215546453399658,57.173898065490725,2.697876453399658,57.81247806549072,2.697876453399658C57.81247806549072,2.697876453399658,85.56352806549071,2.697876453399658,85.56352806549071,2.697876453399658C86.20212806549073,2.697876453399658,86.71982806549073,3.215546453399658,86.71982806549073,3.854126453399658C86.71982806549073,4.492696453399658,86.20212806549073,5.010376453399658,85.56352806549071,5.010376453399658C85.56352806549071,5.010376453399658,57.81247806549072,5.010376453399658,57.81247806549072,5.010376453399658C57.173898065490725,5.010376453399658,56.65622806549072,4.492696453399658,56.65622806549072,3.854126453399658C56.65622806549072,3.854126453399658,56.65622806549072,3.854126453399658,56.65622806549072,3.854126453399658Z" fill-rule="evenodd" fill="#14142B" fill-opacity="1"/></g><g transform="matrix(0,1,-1,0,90.18796682357788,-41.624733448028564)"><path d="M66.32240013580322,24.549653687774658C66.81296113580322,24.140835687774658,67.54206013580323,24.20710318777466,67.95088013580322,24.697666687774657C67.95088013580322,24.697666687774657,75.24825013580322,33.45417668777466,75.24825013580322,33.45417668777466C75.84383013580322,34.16883668777466,75.84383013580322,35.20691668777466,75.24825013580322,35.92161668777466C75.24825013580322,35.92161668777466,67.95088013580322,44.67821668777466,67.95088013580322,44.67821668777466C67.54206013580323,45.16871668777466,66.81296113580322,45.23501668777466,66.32240013580322,44.82621668777466C65.83183663580323,44.41731668777466,65.76556913580322,43.68831668777466,66.17438713580323,43.19771668777466C66.17438713580323,43.19771668777466,73.26613013580322,34.68791668777466,73.26613013580322,34.68791668777466C73.26613013580322,34.68791668777466,66.17438713580323,26.178126687774657,66.17438713580323,26.178126687774657C65.76556913580322,25.68756668777466,65.83183663580323,24.958471687774658,66.32240013580322,24.549653687774658C66.32240013580322,24.549653687774658,66.32240013580322,24.549653687774658,66.32240013580322,24.549653687774658Z" fill-rule="evenodd" fill="#14142B" fill-opacity="1"/></g></g></g></svg>