<svg xmlns="http://www.w3.org/2000/svg" xmlns:xlink="http://www.w3.org/1999/xlink" fill="none" version="1.1" width="37" height="37" viewBox="0 0 37 37"><defs><clipPath id="master_svg0_10_5523"><rect x="0" y="37" width="37" height="37" rx="0"/></clipPath></defs><g transform="matrix(0,-1,1,0,-37,37)" clip-path="url(#master_svg0_10_5523)"><g><g transform="matrix(0,1,-1,0,59.35410451889038,20.041648387908936)"><path d="M19.656228065490723,40.85412645339966C19.656228065490723,40.21554645339966,20.17389806549072,39.69787645339966,20.812478065490723,39.69787645339966C20.812478065490723,39.69787645339966,48.56352806549072,39.69787645339966,48.56352806549072,39.69787645339966C49.202128065490726,39.69787645339966,49.719828065490724,40.21554645339966,49.719828065490724,40.85412645339966C49.719828065490724,41.49269645339966,49.202128065490726,42.01037645339966,48.56352806549072,42.01037645339966C48.56352806549072,42.01037645339966,20.812478065490723,42.01037645339966,20.812478065490723,42.01037645339966C20.17389806549072,42.01037645339966,19.656228065490723,41.49269645339966,19.656228065490723,40.85412645339966C19.656228065490723,40.85412645339966,19.656228065490723,40.85412645339966,19.656228065490723,40.85412645339966Z" fill-rule="evenodd" fill="#14142B" fill-opacity="1"/></g><g transform="matrix(0,1,-1,0,90.18796682357788,32.375266551971436)"><path d="M29.32240013580322,61.54965368777466C29.812961135803224,61.14083568777466,30.542060135803222,61.207103187774656,30.950880135803224,61.69766668777466C30.950880135803224,61.69766668777466,38.248250135803225,70.45417668777466,38.248250135803225,70.45417668777466C38.84383013580322,71.16883668777466,38.84383013580322,72.20691668777465,38.248250135803225,72.92161668777466C38.248250135803225,72.92161668777466,30.950880135803224,81.67821668777466,30.950880135803224,81.67821668777466C30.542060135803222,82.16871668777466,29.812961135803224,82.23501668777466,29.32240013580322,81.82621668777466C28.831836635803224,81.41731668777466,28.765569135803222,80.68831668777466,29.174387135803222,80.19771668777466C29.174387135803222,80.19771668777466,36.26613013580322,71.68791668777466,36.26613013580322,71.68791668777466C36.26613013580322,71.68791668777466,29.174387135803222,63.17812668777466,29.174387135803222,63.17812668777466C28.765569135803222,62.687566687774655,28.831836635803224,61.95847168777466,29.32240013580322,61.54965368777466C29.32240013580322,61.54965368777466,29.32240013580322,61.54965368777466,29.32240013580322,61.54965368777466Z" fill-rule="evenodd" fill="#14142B" fill-opacity="1"/></g></g></g></svg>