<svg xmlns="http://www.w3.org/2000/svg" xmlns:xlink="http://www.w3.org/1999/xlink" fill="none" version="1.1" width="20" height="20" viewBox="0 0 20 20"><defs><clipPath id="master_svg0_10_02958/10_3180"><rect x="0" y="0" width="20" height="20" rx="0"/></clipPath></defs><g clip-path="url(#master_svg0_10_02958/10_3180)"><g><path d="M9.1669921875,3.333418046875C5.9453321875,3.333418046875,3.3336621875,5.945088046875,3.3336621875,9.166748046875C3.3336621875,12.388448046875,5.9453321875,15.000048046875,9.1669921875,15.000048046875C10.7385721875,15.000048046875,12.1650921875,14.378548046875,13.2139921875,13.367948046875C13.2358921875,13.339448046875,13.2598921875,13.311948046875,13.2860921875,13.285848046875C13.3121921875,13.259648046875,13.3396921875,13.235648046875,13.3681921875,13.213748046875C14.3787921875,12.164848046875,15.0002921875,10.738328046875,15.0002921875,9.166748046875C15.0002921875,5.945088046875,12.3886921875,3.333418046875,9.1669921875,3.333418046875C9.1669921875,3.333418046875,9.1669921875,3.333418046875,9.1669921875,3.333418046875ZM15.0268921875,13.848148046875C16.053192187500002,12.565048046875,16.6669921875,10.937578046875,16.6669921875,9.166748046875C16.6669921875,5.024618046875,13.3091921875,1.666748046875,9.1669921875,1.666748046875C5.0248621875,1.666748046875,1.6669921875,5.024618046875,1.6669921875,9.166748046875C1.6669921875,13.308948046875,5.0248621875,16.666748046875,9.1669921875,16.666748046875C10.9378221875,16.666748046875,12.5652921875,16.052948046875002,13.8483921875,15.026648046875C13.8483921875,15.026648046875,16.9110921875,18.089348046875,16.9110921875,18.089348046875C17.236492187499998,18.414748046875,17.7641921875,18.414748046875,18.0895921875,18.089348046875C18.4149921875,17.763948046875,18.4149921875,17.236248046874998,18.0895921875,16.910848046875C18.0895921875,16.910848046875,15.0268921875,13.848148046875,15.0268921875,13.848148046875C15.0268921875,13.848148046875,15.0268921875,13.848148046875,15.0268921875,13.848148046875Z" fill-rule="evenodd" fill="#ffffff" fill-opacity="1"/></g></g></svg>