<?xml version="1.0" encoding="UTF-8"?>
<svg id="Layer_2" data-name="Layer 2" xmlns="http://www.w3.org/2000/svg" viewBox="0 0 263.47 96.04">
  <defs>
    <style>
      .cls-1 {
        fill: #addfeb;
      }

      .cls-2 {
        fill: #f05c2a;
      }
    </style>
  </defs>
  <g id="menu_text" data-name="menu text">
    <g>
      <path class="cls-2" d="M56.61,79.93c22.07,0,39.97-17.9,39.97-39.97S78.68,0,56.61,0,16.64,17.89,16.64,39.97s17.89,39.97,39.97,39.97"/>
      <path class="cls-1" d="M90.57,32.79c-7.43,32.99-56.54-37.21-62.61-7.26,2.51-36.14,60.12,33.84,60.21-6.35l.08-.13c3.57,9.09,2.61,10.72,2.32,13.74"/>
      <path class="cls-1" d="M69.96,19.84c4.49,0,8.13-2.93,8.13-6.55s-3.64-6.56-8.13-6.56-8.13,2.94-8.13,6.56,3.64,6.55,8.13,6.55"/>
      <path class="cls-1" d="M74.22,75.85c3.86-1.9,7.36-4.39,10.4-7.38C96.31,13.15,25.26,64.45,0,96.04c73.22-54.58,81.49-44.16,74.22-20.19"/>
      <path class="cls-2" d="M113.2,50.28c-.23,0-.49.04-.68.22l-3.58.52v-9.86c.07-.12.15-.22.15-.42,0-.42-.13-.99-1-.99-.42,0-.96.18-.96.99,0,.18.02.3.08.38v10.18c-.15.2-.19.41-.19.69,0,.58.42.9.96.9.21,0,.34-.02.57-.08l4.45-.6.34.06c.41-.08.73-.41.73-1.09,0-.55-.45-.87-.87-.89"/>
      <path class="cls-2" d="M120.17,48.2c1.83-.42,2.49-1.02,2.49-1.89,0-1.37-1.15-2.5-2.6-2.5s-2.65.63-3.61,1.9c-.81,1.08-1.32,2.51-1.32,4.11s.92,3.07,2.69,3.07c1.13,0,2.11-.26,3.07-.99.76-.57,1.59-1.39,1.59-1.91,0-.38-.34-.81-.96-.81-.47,0-.92.3-.9.87-.68.94-1.79,1.36-2.5,1.36-.83,0-1.24-.52-1.24-1.39,0-.48.02-.77.09-1.08l3.22-.73M119.94,45.28c.85,0,.98.6.98.82,0,.32-.21.44-.7.58-.66.18-1.62.42-2.86.68l-.04-.02c.75-1.62,1.67-2.06,2.62-2.06"/>
      <path class="cls-2" d="M125.3,39.95c-.68,0-1.1.65-1.1,1.92,0,.56.34,1.03.96,1.03s1.15-.6,1.15-1.9c0-.65-.28-1.05-1.02-1.05"/>
      <path class="cls-2" d="M126.01,45.31c.06-.06.15-.2.15-.48,0-.57-.49-1.03-.91-1.03-.62,0-1.06.28-1.06,1.15,0,.18.04.32.11.44v5.76c-.17.3-.17.4-.17.54,0,.43.24,1.01.92,1.01.62,0,1.11-.42,1.11-.99,0-.18-.06-.32-.17-.48v-5.92Z"/>
      <path class="cls-2" d="M134.34,46.36c-.81,0-1.58.26-2.58.63-.76.29-1.29.51-1.55.51-.21,0-.38-.06-.38-.36,0-.36.3-.76.96-1.21.81-.56,2.04-.81,3.34-.81.32.14.47.22.68.22.34,0,.81-.08.81-.79,0-.57-.72-1.01-1.51-1.01-1.53,0-3.01.37-4.09,1.01-1.15.71-1.93,1.72-1.93,2.95,0,1.03.89,1.74,1.77,1.74.94,0,1.64-.29,2.52-.65.74-.29,1.28-.49,1.7-.49.36,0,.56.18.56.5,0,.46-.21,1.03-.9,1.63-.81.71-1.96,1.03-2.69,1.03-.64,0-.92-.16-1.13-.3l.04-.32c0-.56-.47-.67-.96-.67-.32,0-.77.36-.77,1.09,0,.49.4,1,.91,1.3.49.3,1.32.47,1.9.47,1.47,0,2.9-.67,3.86-1.44.75-.59,1.49-1.69,1.49-3.06,0-.85-.53-1.97-2.05-1.97"/>
      <path class="cls-2" d="M145.32,44.9c.1-.57-.06-1.09-.9-1.09-.66,0-.85.3-.85.65,0,.38,0,.22.06.44v4.83c-.74.62-1.94,1.59-2.96,1.59-.21,0-.66-.28-.66-.66v-5.57c.09-.14.13-.28.13-.48,0-.38-.25-.87-.91-.87-.49,0-.98.28-.98.91l.06.38v5.65c0,1.56,1.28,2.24,2.28,2.24s2.28-.81,2.98-1.38v.22c-.21.43.08.92.79.92.47,0,1.1-.16,1.1-.84,0-.18-.02-.34-.13-.48v-6.47Z"/>
      <path class="cls-2" d="M152.34,43.79c-.28,0-.47.1-1.13.48-.45.26-1.09.81-1.62,1.27v-.55c.05-.22.08-.32.08-.44,0-.44-.3-.79-.85-.79-.44,0-.98.24-.98.87,0,.16.02.28.06.44v6.2c-.12.16-.19.38-.19.55,0,.5.32.87.94.87.73,0,1.13-.24,1.13-.93,0-.2-.09-.38-.19-.49v-3.78c.53-.57,1.72-1.57,2.28-1.9-.02.26-.02.34-.02.46,0,.52.53.76.89.76.26,0,.81-.04.81-.76,0-1.09-.15-2.24-1.21-2.24"/>
      <path class="cls-2" d="M159.1,48.2c1.83-.42,2.49-1.02,2.49-1.89,0-1.37-1.15-2.5-2.6-2.5s-2.65.63-3.61,1.9c-.81,1.08-1.32,2.51-1.32,4.11s.92,3.07,2.69,3.07c1.13,0,2.11-.26,3.07-.99.76-.57,1.59-1.39,1.59-1.91,0-.38-.34-.81-.96-.81-.47,0-.93.3-.91.87-.68.94-1.79,1.36-2.5,1.36-.83,0-1.24-.52-1.24-1.39,0-.48.02-.77.1-1.08l3.22-.73M158.88,45.28c.84,0,.98.6.98.82,0,.32-.21.44-.7.58-.66.18-1.62.42-2.86.68l-.04-.02c.75-1.62,1.68-2.06,2.62-2.06"/>
      <path class="cls-2" d="M175.12,45.56c0-.97-.45-1.96-2.07-1.96-1.39,0-2.96.26-4.34,1.24-.4.06-.75.4-.75.89s.39.88.89.88.92-.34.97-.74c.68-.48,1.88-.8,2.84-.8.73,0,.77.2.77.68v.84c-1.2.12-2.64.54-3.92,1.3-1.47.88-2.32,2.15-2.32,3.35,0,1.05.74,1.7,1.96,1.7,1.33,0,3.1-.81,4.28-2.2v.68c-.05.08-.15.2-.15.5,0,.44.28.77.88.77.47,0,1.1-.16,1.1-.81,0-.18-.02-.34-.13-.48v-5.84M172.45,49.93c-.73.74-2.35,1.53-3.06,1.53-.34,0-.47-.16-.47-.46,0-.57.77-1.52,1.71-2.06.71-.42,1.82-.86,2.79-1.02,0,1-.13,1.18-.97,2"/>
      <path class="cls-2" d="M184.8,44.93c0-.87-.98-1.39-1.49-1.39-.98,0-2.19,1.11-3.83,2.32v-.97c.06-.1.13-.26.13-.5,0-.36-.17-.85-.92-.85-.47,0-.98.32-.98.89,0,.18.02.32.08.42v2.26c-.13.22-.19.48-.19.68,0,.18.04.38.19.53v3.09c-.08.14-.15.3-.15.52,0,.42.3.77.91.77.43,0,1-.12,1-.85,0-.16-.02-.28-.06-.38v-3.6c1.64-1.29,2.98-2.34,3.21-2.34.13,0,.42.12.42.38v5.59l-.09.34c0,.49.34.87.9.87s.94-.26.94-.91c0-.16,0-.28-.06-.42v-6.44Z"/>
      <path class="cls-2" d="M194.95,40.92l.04-.38c0-.46-.26-1.01-.92-1.01-.44,0-.98.3-.98.93,0,.24.04.46.17.62l-.02,3.4c-.17-.2-.56-.24-.94-.24-2.56,0-5.78,3.52-5.78,6.2,0,1.55.72,2.5,2.09,2.5.85,0,1.6-.24,2.46-.85.66-.45,1.52-1.35,2.15-2.18h.04v1.42c-.04.12-.08.28-.08.52,0,.43.23.85.91.85.6,0,1.03-.26,1.03-.87,0-.12-.02-.32-.17-.54v-10.37M191.52,49.48c-.88.95-1.82,1.81-2.71,1.81-.4,0-.57-.28-.57-.72,0-.82.66-2.09,1.54-3.08.87-.99,1.96-1.58,2.88-1.58.49,0,.6.38.6.64,0,.48-.27,1.33-1.75,2.94"/>
      <path class="cls-2" d="M207.3,41.21c1,0,1.58.32,1.64.56.09.46.34.84.85.84s.98-.44.98-1.08c0-1.01-1.94-2-3.54-2-1.32,0-2.62.55-3.73,2.14-.87,1.27-1.83,3.79-1.83,5.72,0,2.96,1.28,5.53,4.02,5.53.56,0,.98-.08,1.79-.45.83-.42,1.87-1.19,2.38-1.76.51-.56.75-.93.75-1.35,0-.5-.38-.97-1.11-.97-.55,0-.81.48-.92,1.21-.6.76-1.7,1.65-2.6,1.65s-1.32-.18-1.79-.8c-.38-.5-.76-1.49-.76-2.8,0-1.07.34-3,1.24-4.61.68-1.19,1.53-1.83,2.64-1.83"/>
      <path class="cls-2" d="M219.45,44.9c.09-.57-.06-1.09-.9-1.09-.66,0-.85.3-.85.65,0,.38,0,.22.06.44v4.83c-.74.62-1.94,1.59-2.96,1.59-.21,0-.66-.28-.66-.66v-5.57c.09-.14.13-.28.13-.48,0-.38-.25-.87-.91-.87-.49,0-.98.28-.98.91l.05.38v5.65c0,1.56,1.28,2.24,2.28,2.24s2.28-.81,2.98-1.38v.22c-.21.43.08.92.79.92.47,0,1.09-.16,1.09-.84,0-.18-.02-.34-.13-.48v-6.47Z"/>
      <path class="cls-2" d="M223.89,40.44c0-.49-.38-.91-.96-.91-.64,0-1.04.18-1.04,1.03,0,.26.06.42.11.53v10.22c-.08.2-.08.3-.08.38,0,.55.4.99,1.04.99.45,0,.92-.32.92-.89,0-.18,0-.36-.19-.58v-10.04c.13-.18.19-.38.19-.73"/>
      <path class="cls-2" d="M232.2,48.12c-.4,0-.74.2-.79.78-.34.5-.79.92-1.11,1.17-.89.66-1.06.78-1.34.78-.17,0-.17-.34-.17-.62v-5.01l2.26-.36.34.04c.45,0,.74-.35.74-.99,0-.18-.28-.73-.83-.73l-.4.1-2.11.32v-1.19c.1-.14.11-.3.11-.47,0-.6-.49-.69-.83-.69-.51-.02-1.04.12-1.04.76l.06.4v1.47l-1.06.16-.21-.04c-.47.02-.94.36-.94,1,0,.21.24.77.9.77.15-.03.24-.07.36-.15l.94-.14v6.15c0,.93.56,1.24,1.26,1.24.55,0,1.32-.36,2.22-1.01.94-.72,2.56-2.15,2.56-2.83,0-.24-.11-.87-.94-.87"/>
      <path class="cls-2" d="M241.46,44.9c.1-.57-.05-1.09-.9-1.09-.66,0-.85.3-.85.65,0,.38,0,.22.06.44v4.83c-.73.62-1.94,1.59-2.96,1.59-.21,0-.66-.28-.66-.66v-5.57c.09-.14.13-.28.13-.48,0-.38-.25-.87-.91-.87-.49,0-.98.28-.98.91l.06.38v5.65c0,1.56,1.28,2.24,2.28,2.24s2.28-.81,2.98-1.38v.22c-.21.43.08.92.79.92.47,0,1.09-.16,1.09-.84,0-.18-.02-.34-.13-.48v-6.47Z"/>
      <path class="cls-2" d="M248.49,43.79c-.28,0-.47.1-1.13.48-.45.26-1.1.81-1.63,1.27v-.55c.06-.22.08-.32.08-.44,0-.44-.3-.79-.85-.79-.43,0-.98.24-.98.87,0,.16.02.28.06.44v6.2c-.12.16-.19.38-.19.55,0,.5.32.87.94.87.73,0,1.13-.24,1.13-.93,0-.2-.09-.38-.19-.49v-3.78c.53-.57,1.72-1.57,2.29-1.9-.02.26-.02.34-.02.46,0,.52.53.76.88.76.26,0,.81-.04.81-.76,0-1.09-.15-2.24-1.2-2.24"/>
      <path class="cls-2" d="M257.99,45.56c0-.97-.45-1.96-2.07-1.96-1.39,0-2.96.26-4.34,1.24-.4.06-.76.4-.76.89s.4.88.89.88.92-.34.98-.74c.68-.48,1.88-.8,2.83-.8.73,0,.77.2.77.68v.84c-1.2.12-2.64.54-3.92,1.3-1.47.88-2.32,2.15-2.32,3.35,0,1.05.74,1.7,1.96,1.7,1.33,0,3.1-.81,4.28-2.2v.68c-.05.08-.15.2-.15.5,0,.44.28.77.88.77.47,0,1.09-.16,1.09-.81,0-.18-.02-.34-.13-.48v-5.84M255.32,49.93c-.73.74-2.35,1.53-3.06,1.53-.33,0-.47-.16-.47-.46,0-.57.77-1.52,1.71-2.06.71-.42,1.82-.86,2.8-1.02,0,1-.13,1.18-.97,2"/>
      <path class="cls-2" d="M262.28,41.17c.13-.18.19-.38.19-.73,0-.5-.37-.91-.96-.91-.64,0-1.04.18-1.04,1.03,0,.26.06.42.12.53v10.22c-.08.2-.08.3-.08.38,0,.56.4.99,1.04.99.45,0,.92-.32.92-.89,0-.18,0-.36-.19-.58v-10.04Z"/>
      <path class="cls-2" d="M105.52,63.65c-.68,0-1.52.18-2.75.59-1.02.33-1.43.49-1.77.49-.55,0-.74-.46-.74-.81,0-.52.42-1.35,1.11-2.03.68-.64,1.51-1.09,2.73-1.09.83,0,1,.18,1.3.38.08.36.43.6.98.6.43,0,.85-.2.85-.92,0-.89-1.64-1.74-3.04-1.74-1.26,0-2.56.4-3.77,1.4-1.04.87-1.93,2.3-1.93,3.74,0,1.33.7,2.3,2.32,2.3.49,0,1.2-.14,2.47-.58,1.34-.44,1.96-.5,2.51-.5.62,0,.98.41.98,1.03,0,.79-.17,1.51-.81,2.24-.9.99-2.55,1.89-4.15,1.89-.75,0-1.09-.18-1.36-1.19-.19-.69-.4-1.13-.96-1.13-.47,0-.96.48-.96,1.17s.41,1.51.92,2c.62.59,1.34.83,2.38.83.89,0,1.51-.08,2.62-.49.9-.36,1.55-.71,2.6-1.74.91-.89,1.47-2,1.47-3.77s-1.15-2.65-3.02-2.65"/>
      <path class="cls-2" d="M114.64,67.62c1.83-.42,2.49-1.01,2.49-1.89,0-1.37-1.15-2.5-2.6-2.5s-2.65.63-3.61,1.9c-.81,1.08-1.32,2.51-1.32,4.1,0,1.67.92,3.07,2.69,3.07,1.13,0,2.11-.26,3.07-.99.75-.57,1.58-1.39,1.58-1.91,0-.38-.34-.81-.96-.81-.47,0-.92.3-.91.88-.68.93-1.79,1.35-2.5,1.35-.83,0-1.24-.52-1.24-1.39,0-.48.02-.78.09-1.08l3.22-.74M114.41,64.71c.85,0,.98.6.98.82,0,.32-.21.44-.7.58-.66.18-1.62.42-2.86.68l-.04-.02c.75-1.62,1.68-2.06,2.61-2.06"/>
      <path class="cls-2" d="M122.9,63.21c-.28,0-.47.1-1.13.48-.45.26-1.09.81-1.62,1.27v-.55c.06-.22.08-.32.08-.44,0-.44-.3-.8-.85-.8-.44,0-.98.24-.98.87,0,.16.02.28.06.44v6.2c-.11.16-.19.38-.19.56,0,.5.32.87.94.87.74,0,1.13-.24,1.13-.93,0-.2-.09-.38-.19-.5v-3.77c.53-.58,1.72-1.57,2.28-1.91-.02.26-.02.34-.02.46,0,.51.53.75.89.75.26,0,.81-.04.81-.75,0-1.09-.15-2.24-1.21-2.24"/>
      <path class="cls-2" d="M131.85,63.09c-.49,0-.73.28-1,1.01-.4,1.01-.81,1.81-1.38,2.82-.44.77-.83,1.55-1.04,2.26h-.04c-.15-.73-.36-1.67-.72-2.86-.22-.75-.41-1.29-.45-1.71.08-.24.12-.4.12-.53,0-.42-.38-.84-.9-.84-.47,0-.96.34-.96.89,0,.26,0,.36.08.49.02.34.05.6.19,1.15.21.95.3,1.31.9,3.12.56,1.69.66,2.02.66,2.1,0,.69.4,1.17.96,1.17s.85-.36.96-.93c.06-.3.34-1.09,1.68-3.55.77-1.37.64-1.15,1.11-1.99.21-.5.66-1.33.66-1.75,0-.64-.38-.87-.83-.87"/>
      <path class="cls-2" d="M135.6,64.74c.06-.06.15-.2.15-.48,0-.58-.49-1.03-.91-1.03-.62,0-1.05.28-1.05,1.15,0,.18.04.32.11.44v5.76c-.17.3-.17.4-.17.54,0,.44.24,1.01.92,1.01.63,0,1.11-.42,1.11-.99,0-.18-.06-.32-.17-.48v-5.92Z"/>
      <path class="cls-2" d="M134.88,59.38c-.68,0-1.1.65-1.1,1.92,0,.56.34,1.03.96,1.03s1.16-.59,1.16-1.9c0-.66-.28-1.05-1.02-1.05"/>
      <path class="cls-2" d="M143.78,67.88c-.32,0-.45.04-.64.24-.19.2-.19.24-.24.56-.6,1.18-1.66,2.03-2.41,2.03-.9,0-1.45-.48-1.45-1.69,0-1.41.38-2.33,1.15-3.19.76-.85.98-1.05,1.92-1.05.26,0,.34.04.53.36.15.3.34.6.76.6.49,0,1.09-.24,1.09-.95,0-.83-.98-1.66-2.38-1.66-1.22,0-2.24.51-2.81,1.15-1.56,1.73-2,2.79-2,5.01,0,1.53,1,3.09,2.87,3.09.81,0,1.68-.2,2.58-.89.81-.61,1.92-2,1.92-2.72,0-.32-.23-.88-.89-.88"/>
      <path class="cls-2" d="M150.92,67.62c1.83-.42,2.49-1.01,2.49-1.89,0-1.37-1.15-2.5-2.6-2.5s-2.65.63-3.61,1.9c-.81,1.08-1.32,2.51-1.32,4.1,0,1.67.92,3.07,2.7,3.07,1.13,0,2.11-.26,3.07-.99.76-.57,1.58-1.39,1.58-1.91,0-.38-.34-.81-.96-.81-.47,0-.92.3-.9.88-.68.93-1.79,1.35-2.5,1.35-.83,0-1.24-.52-1.24-1.39,0-.48.02-.78.09-1.08l3.22-.74M150.69,64.71c.85,0,.98.6.98.82,0,.32-.21.44-.69.58-.66.18-1.62.42-2.86.68l-.04-.02c.75-1.62,1.68-2.06,2.62-2.06"/>
      <path class="cls-2" d="M160.95,65.79c-.81,0-1.58.26-2.58.63-.76.29-1.28.51-1.55.51-.21,0-.38-.06-.38-.36,0-.36.3-.75.96-1.21.81-.56,2.04-.81,3.33-.81.32.14.47.21.68.21.34,0,.81-.08.81-.79,0-.57-.72-1-1.51-1-1.52,0-3.01.37-4.09,1-1.15.72-1.92,1.72-1.92,2.95,0,1.03.88,1.74,1.77,1.74.94,0,1.64-.3,2.53-.65.73-.29,1.28-.49,1.7-.49.36,0,.56.18.56.5,0,.45-.21,1.03-.9,1.63-.81.71-1.96,1.03-2.69,1.03-.64,0-.92-.16-1.13-.3l.04-.32c0-.56-.47-.68-.96-.68-.32,0-.77.36-.77,1.09,0,.49.4,1.01.91,1.31.49.3,1.32.47,1.9.47,1.47,0,2.9-.67,3.86-1.44.75-.59,1.49-1.69,1.49-3.06,0-.85-.53-1.98-2.06-1.98"/>
      <path class="cls-2" d="M174.76,59.04c-1.47,0-2.17.24-3.5.75-.08-.41-.4-.63-.83-.63-.49,0-1.06.26-1.06.85,0,.22.08.44.08.48v11.07c0,.38.13.74.75.74.53,0,2.02-.38,3.22-.91.76-.34,1.94-.97,2.9-1.88,1.68-1.63,2.44-3.85,2.44-6.01,0-2.31-1.89-4.44-4-4.44M175.09,68.22c-1.04,1.03-2.77,1.88-3.9,2.1v-8.66c.72-.46,1.96-.95,3.28-.95,1.53,0,2.54,1.29,2.54,2.92,0,1.39-.55,3.22-1.92,4.59"/>
      <path class="cls-2" d="M184.07,67.62c1.83-.42,2.49-1.01,2.49-1.89,0-1.37-1.15-2.5-2.6-2.5s-2.65.63-3.61,1.9c-.81,1.08-1.32,2.51-1.32,4.1,0,1.67.92,3.07,2.7,3.07,1.13,0,2.11-.26,3.07-.99.76-.57,1.59-1.39,1.59-1.91,0-.38-.34-.81-.96-.81-.47,0-.92.3-.91.88-.68.93-1.79,1.35-2.5,1.35-.83,0-1.24-.52-1.24-1.39,0-.48.02-.78.09-1.08l3.22-.74M183.85,64.71c.85,0,.97.6.97.82,0,.32-.2.44-.69.58-.66.18-1.62.42-2.86.68l-.04-.02c.75-1.62,1.67-2.06,2.61-2.06"/>
      <path class="cls-2" d="M193.69,63.27c-1.54,0-2.65.93-3.65,2.12v-.94s.12-.12.12-.36c0-.7-.53-.92-1.02-.92-.45,0-.88.32-.88.95,0,.18,0,.34.09.5v12.19c-.09.2-.09.44-.09.55,0,.42.19.8.87.8.49,0,1.04-.18,1.04-.87,0-.22,0-.32-.12-.46v-4.83c.21.16.44.24.87.24,1.19,0,2.77-.93,3.8-2.2.96-1.22,1.49-2.81,1.49-4.18,0-1.68-1.11-2.59-2.51-2.59M190.77,70.59c-.27,0-.62-.12-.74-.44v-2.2c.24-.54.74-1.3,1.68-2.13.58-.52,1.07-.88,1.84-.88.68,0,.9.6.9,1.09,0,1.76-1.84,4.56-3.69,4.56"/>
      <path class="cls-2" d="M205.06,64.99c0-.97-.45-1.96-2.07-1.96-1.39,0-2.96.26-4.33,1.24-.4.06-.76.4-.76.89s.4.88.88.88.92-.34.98-.74c.68-.48,1.88-.8,2.83-.8.73,0,.77.2.77.68v.84c-1.2.12-2.65.54-3.92,1.29-1.47.88-2.32,2.15-2.32,3.35,0,1.05.74,1.7,1.96,1.7,1.33,0,3.09-.81,4.28-2.2v.68c-.06.08-.15.2-.15.5,0,.44.28.78.88.78.47,0,1.1-.16,1.1-.81,0-.18-.02-.34-.13-.48v-5.85M202.39,69.35c-.73.74-2.35,1.54-3.06,1.54-.34,0-.47-.16-.47-.46,0-.57.77-1.52,1.71-2.06.72-.42,1.82-.85,2.8-1.01,0,1-.13,1.18-.98,2"/>
      <path class="cls-2" d="M212.97,64.3c-.13-.62-.44-1.08-1.11-1.08-.28,0-.47.1-1.13.48-.46.26-1.1.81-1.62,1.27v-.55c.05-.22.08-.32.08-.44,0-.44-.3-.79-.85-.79-.43,0-.98.24-.98.87,0,.16.02.28.06.44v6.2c-.11.16-.19.38-.19.56,0,.5.32.87.94.87.74,0,1.13-.24,1.13-.93,0-.2-.09-.38-.19-.5v-3.77c.53-.58,1.71-1.57,2.28-1.91-.02.26-.02.34-.02.46,0,.51.53.75.89.75.27,0,.81-.04.81-.75,0-.27-.01-.54-.04-.79l-.08-.26.02-.11Z"/>
      <path class="cls-2" d="M221.44,67.55c-.4,0-.73.2-.79.78-.34.5-.79.92-1.11,1.17-.88.66-1.06.78-1.34.78-.17,0-.17-.34-.17-.62v-5.01l2.26-.36.34.04c.45,0,.74-.36.74-.99,0-.18-.29-.73-.83-.73l-.4.1-2.11.32v-1.19c.1-.14.11-.3.11-.48,0-.59-.49-.69-.83-.69-.51-.02-1.04.12-1.04.76l.06.4v1.46l-1.06.16-.21-.04c-.44.02-.87.33-.92.88l.06.37c.12.24.37.51.83.51.15-.03.24-.07.36-.15l.94-.14v6.15c0,.93.56,1.24,1.26,1.24.55,0,1.32-.36,2.22-1.02.94-.72,2.56-2.15,2.56-2.83,0-.24-.11-.88-.94-.88"/>
      <path class="cls-2" d="M235.62,64.38c0-.57-.32-1.38-1.04-1.38-.81,0-1.6.51-3.94,2.23v-.44c0-.85-.15-1.8-1.09-1.8-.26,0-.73.08-1.34.47-.51.32-.87.55-2.55,1.62v-.71c.13-.22.13-.34.13-.46,0-.51-.28-.93-.83-.93s-1.11.12-1.11.93c0,.26.04.38.12.54v6.24c-.1.26-.1.24-.1.47,0,.44.17.95.98.95.62,0,.94-.34.94-.91,0-.18-.02-.32-.13-.48v-3.85c1.89-1.13,2.94-1.92,3.07-1.92l.21.2v5.57c-.11.12-.19.3-.19.52,0,.46.23.87.88.87s1-.28,1-1.21v-3.89c2.87-1.98,2.94-2.02,3.09-2.02.19,0,.19.18.19.42v5.41c-.08.08-.12.22-.12.38,0,.6.3.91.89.91.45,0,1.06-.22,1.06-.87,0-.24-.04-.38-.13-.51v-6.36Z"/>
      <path class="cls-2" d="M242.74,67.62c1.83-.42,2.49-1.01,2.49-1.89,0-1.37-1.15-2.5-2.6-2.5s-2.65.63-3.61,1.9c-.81,1.08-1.32,2.51-1.32,4.1,0,1.67.92,3.07,2.69,3.07,1.13,0,2.11-.26,3.07-.99.76-.57,1.59-1.39,1.59-1.91,0-.38-.34-.81-.96-.81-.47,0-.93.3-.91.88-.68.93-1.79,1.35-2.5,1.35-.83,0-1.24-.52-1.24-1.39,0-.48.02-.78.09-1.08l3.22-.74M242.51,64.71c.84,0,.98.6.98.82,0,.32-.21.44-.69.58-.66.18-1.62.42-2.86.68l-.04-.02c.75-1.62,1.68-2.06,2.62-2.06"/>
      <path class="cls-2" d="M253.98,64.36c0-.87-.98-1.39-1.49-1.39-.98,0-2.19,1.11-3.83,2.32v-.97c.06-.1.13-.26.13-.5,0-.36-.17-.85-.92-.85-.47,0-.99.32-.99.89,0,.18.02.32.08.42v2.26c-.13.22-.19.47-.19.67,0,.18.04.38.19.53v3.09c-.08.14-.15.3-.15.51,0,.42.3.77.91.77.43,0,1-.12,1-.85,0-.16-.02-.28-.06-.38v-3.61c1.64-1.29,2.98-2.34,3.21-2.34.13,0,.41.12.41.37v5.59l-.09.34c0,.5.34.87.91.87s.94-.26.94-.91c0-.16,0-.28-.05-.42v-6.44Z"/>
      <path class="cls-2" d="M262.52,67.55c-.39,0-.73.2-.79.78-.34.5-.79.92-1.11,1.17-.89.66-1.06.78-1.34.78-.17,0-.17-.34-.17-.62v-5.01l2.26-.36.34.04c.45,0,.73-.36.73-.99,0-.18-.28-.73-.83-.73l-.4.1-2.11.32v-1.19c.1-.14.12-.3.12-.48,0-.59-.49-.69-.83-.69-.51-.02-1.04.12-1.04.76l.05.4v1.46l-1.05.16-.2-.04c-.47.02-.94.36-.94.99,0,.22.24.77.91.77.15-.03.24-.07.36-.15l.94-.14v6.15c0,.93.57,1.24,1.27,1.24.55,0,1.32-.36,2.22-1.02.94-.72,2.56-2.15,2.56-2.83,0-.24-.11-.88-.94-.88"/>
      <path class="cls-2" d="M122.57,20.28h-1.32v-1.24c0-.4-.12-.74-.38-1.03-.25-.29-.56-.44-.92-.44l-3.93.02v-.85l6.16.03c.34,0,.5-.23.5-.69,0-.53-.2-.79-.6-.79h-6.4l-.02-1.22c0-.41-.21-.61-.61-.61-.47,0-.7.22-.7.65l.04,1.18h-4.63c-1.35-.01-2.02.61-2.02,1.88l.02,3.91c0,2.77-.12,4.67-.35,5.71-.23,1.04-.61,2.2-1.15,3.48-.09.19-.14.37-.14.53,0,.49.2.73.61.73.17,0,.33-.07.48-.21.29-.26.65-1.14,1.08-2.64.29-1.03.5-2.12.62-3.26.12-1.14.18-2.36.18-3.66l5.54-.02v1.32c-2.76,0-4.31,0-4.66.02-.35.01-.53.22-.53.63,0,.17.03.32.1.44-.21.14-.31.34-.31.6,0,.3.12.53.35.68l2.47,1.93c.26.2.47.28.64.24-.71.52-1.96,1.29-3.77,2.3-.24.13-.36.34-.36.64,0,.2.06.36.17.51.11.15.25.22.41.22.14,0,.77-.31,1.9-.94,1.13-.63,2.24-1.4,3.35-2.33h.01l.23-.37v2.19c0,.44-.17.66-.5.66-.12,0-.32-.05-.61-.17-.29-.11-.5-.22-.65-.34s-.27-.17-.37-.17c-.19,0-.37.1-.55.3-.17.2-.26.41-.26.64,0,.33.28.64.83.95.55.31,1.05.46,1.49.46.56,0,1.01-.2,1.37-.59.36-.39.55-.83.56-1.32.01-.49.01-1.54.01-3.16.65.91,1.64,1.91,2.95,3,1.31,1.09,2.33,1.63,3.06,1.63.38,0,.57-.27.57-.8,0-.37-.11-.58-.33-.62-1.39-.47-2.69-1.33-3.9-2.58.24-.02.43-.08.58-.18.15-.1.46-.33.94-.67.48-.35.97-.73,1.5-1.16.53-.42.82-.68.88-.78.06-.1.09-.22.09-.37,0-.2-.06-.38-.18-.54-.12-.16-.26-.24-.42-.24l-.33.13c-.1.09-.48.39-1.16.92-.68.53-1.22.94-1.64,1.24-.41.3-.65.53-.71.68-.06.16-.09.27-.09.34-.87-.88-1.47-1.57-1.81-2.07-.02-.15,0-.33.03-.52.7-.02,1.28-.03,1.74-.03l1.65.03c.36,0,.67-.07.93-.21.26-.14.47-.33.62-.57.14-.24.23-.53.24-.87.02-.34.03-.7.04-1.07l1.3-.04c.34,0,.5-.23.5-.69,0-.51-.16-.76-.48-.76M114.63,17.62l-4.65-.03c-.17,0-.31.08-.43.25-.11.17-.17.36-.17.58,0,.45.17.68.52.68l4.73.02v1.18h-5.55v-3c-.01-.35.15-.52.48-.52l5.07.02v.83M114.65,27.13c-.15-.33-.34-.49-.59-.49-.11,0-.25.07-.41.21-.16.14-.28.24-.38.31l.09-.34c0-.2-.1-.38-.31-.54l-2.39-1.74h3.97v2.6M119.93,22.54c0,.38-.17.53-.51.47l-3.45.02v-1.26l3.95.02v.75M115.97,20.3l.02-1.18,3.59-.02c.24,0,.35.19.33.56v-.02l.02.63-3.95.02Z"/>
      <path class="cls-2" d="M142.95,30.25c-2.32-.74-4.62-2.04-6.93-3.89.95.02,1.91.03,2.88.03,2.42,0,3.72-.03,3.88-.09.17-.06.25-.23.25-.52,0-.44-.22-.65-.67-.65h-7.03v-1.11h.95c.2,0,.4-.11.61-.32l.25-.39.09.32c.08.16.18.24.29.24l.08-.02,4-.44c.37.86.59,1.32.65,1.37l.23.09c.16,0,.31-.07.47-.21.15-.14.23-.3.23-.48,0-.1-.21-.65-.63-1.66-.42-1.01-.73-1.68-.92-2-.19-.32-.39-.48-.59-.48-.16,0-.3.06-.42.18-.12.12-.18.26-.18.43l.06.28.56,1.37c-.83.12-1.47.19-1.9.22.74-1.28,1.4-2.61,1.98-3.99.59-1.38.88-2.1.88-2.18,0-.15-.08-.29-.25-.43-.17-.13-.34-.2-.52-.2-.2,0-.33.08-.39.25-.46,1.2-.83,2.09-1.11,2.68l-.82-.77c.87-2.33,1.31-3.6,1.31-3.81,0-.12-.07-.23-.23-.32-.16-.1-.33-.15-.51-.15-.24,0-.39.08-.44.25-.42,1.39-.81,2.45-1.16,3.2l-.27-.06c-.16,0-.31.08-.42.25l.02-.57c0-.61-.62-.89-1.86-.83.07-1,.1-1.56.1-1.69,0-.38-.19-.57-.57-.57-.17,0-.32.06-.44.17-.13.11-.19.29-.2.52-.01.23-.05.76-.11,1.57-.21-.02-.39-.03-.55-.03-.83,0-1.25.38-1.25,1.13l.02,6.12c0,.2.11.42.31.66.21.23.57.35,1.1.35l.3-.02v1.11c-2.1-.02-3.65-.03-4.67-.03-1.13,0-1.79,0-1.97.02-.18.01-.32.08-.44.2-.11.12-.17.27-.17.43,0,.38.21.59.62.61h6.27c-.84.84-2.16,1.76-3.98,2.75-1.82,1-2.83,1.58-3.04,1.74-.2.17-.31.35-.31.55,0,.35.21.52.63.52.15,0,.6-.18,1.34-.53.74-.36,1.68-.87,2.83-1.55,1.15-.68,2.1-1.38,2.86-2.1v2.23s0,1.39,0,1.39c0,.29.07.48.18.57.11.09.26.14.42.14.49,0,.72-.31.69-.93-.03-.62-.03-1.89-.01-3.82,1.81,1.47,3.37,2.52,4.69,3.13,1.31.61,2.14.93,2.5.93.21,0,.4-.07.56-.2.16-.14.24-.28.24-.44,0-.2-.12-.36-.36-.48M139.21,19.8c-.64,1.28-1.17,2.24-1.59,2.87-.15.05-.25.11-.3.16l-.11.1-.02-4.94,2.01,1.81M133.66,17.65c0-.22.04-.38.1-.46.07-.09.23-.13.47-.13h1.03c.27,0,.44.04.52.12.08.08.12.26.12.53v1.53h-2.25v-1.6M134.25,22.86c-.39,0-.59-.23-.59-.69v-1.68h2.25v1.66c0,.46-.19.69-.56.69l-1.1.02Z"/>
      <path class="cls-2" d="M126.47,23.01c-.13.07-.2.21-.2.43,0,.17.05.32.15.45.1.13.24.19.41.18l4.42-.35c.19.59.45.89.79.89.38,0,.59-.21.63-.64l-1.22-2.96c-.1-.23-.26-.35-.48-.35-.16,0-.32.07-.45.2-.14.13-.21.29-.21.48,0,.12.05.29.16.52.1.23.2.46.27.69-.65.11-1.14.18-1.5.19.43-.67.95-1.66,1.57-3,.61-1.33,1.06-2.26,1.36-2.79l.07-.26c0-.15-.07-.28-.22-.39-.15-.11-.32-.16-.51-.16-.29,0-.49.12-.61.36-.12.24-.3.69-.55,1.34-.25.66-.42,1.07-.5,1.23l-.77-.73,1.48-4.18.02-.1c0-.13-.08-.25-.25-.37-.16-.12-.33-.18-.5-.18l-.29.09c-.06.06-.27.55-.61,1.47l-.92,2.41c-.09-.08-.2-.17-.34-.27-.15-.1-.28-.19-.39-.28l-.28-.13c-.15,0-.28.07-.4.21-.11.14-.17.29-.17.45l.08.25c.05.05.43.37,1.14.97.71.6,1.25,1.08,1.62,1.45-.36.76-.89,1.67-1.56,2.72-.68.04-1.09.09-1.22.16"/>
      <path class="cls-2" d="M162.96,30.63c-2.31-1.12-3.94-2.05-4.88-2.77,1.1-1.1,1.98-2.31,2.65-3.63.67-1.32,1.01-2.34,1.01-3.04,0-.39-.11-.74-.34-1.05-.22-.31-.6-.47-1.11-.47l-1.7.02c.63-2.06.94-3.3.94-3.73s-.11-.77-.32-1.01c-.21-.24-.48-.36-.79-.36l-10.79-.02c-.4,0-.59.26-.59.77,0,.44.17.65.52.65l3.52-.02c.05,2-.08,3.91-.37,5.73-.3,1.82-.75,3.4-1.36,4.72-.61,1.32-1.44,2.65-2.52,3.98-.13.15-.2.32-.2.5,0,.16.06.32.18.48.12.16.26.23.43.23.58,0,1.41-.99,2.48-2.97,1.07-1.98,1.8-4.19,2.18-6.63.94,2.23,2.28,4.18,4.02,5.86-1.67,1.31-3.76,2.22-6.27,2.73-.31.05-.46.26-.46.63,0,.49.17.74.51.74.36,0,1.17-.17,2.44-.52,1.28-.34,2.61-1.04,4.01-2.08.38-.28.67-.48.86-.58.91.73,1.98,1.43,3.22,2.09,1.24.65,1.98.98,2.21.98.19,0,.35-.09.49-.27.13-.18.2-.38.2-.6,0-.19-.06-.31-.18-.36M152.36,16h5.28c.27,0,.4.14.4.43,0,.47-.27,1.54-.81,3.22-1.04.02-2.12.03-3.24.03-.96,0-1.53,0-1.73-.03.1-1.81.13-3.03.1-3.64M157.03,26.86c-1.76-1.5-3.08-3.42-3.95-5.75l.02.02,6.86.02c.23,0,.35.11.35.33,0,.4-.26,1.14-.79,2.2-.52,1.07-1.36,2.13-2.49,3.18"/>
      <path class="cls-2" d="M182.64,16.44h-7.25v-2.32c0-.41-.22-.62-.64-.62-.4,0-.61.18-.64.55l-.02,2.43h-6.62c-.39,0-.63.04-.7.12l-.17.29-.05.36c0,.46.16.69.47.69l2.91-.02c.38,3.23,1.68,6.24,3.9,9.03-1.76,1.62-4.06,2.86-6.88,3.7-.22.09-.33.3-.33.63,0,.53.22.79.67.79.48,0,1.53-.4,3.15-1.2,1.63-.8,3.08-1.8,4.36-3,1.34,1.28,2.82,2.32,4.45,3.12,1.62.8,2.61,1.2,2.96,1.2.19,0,.35-.09.48-.26.13-.17.2-.36.2-.57,0-.3-.12-.48-.35-.54-2.42-.57-4.66-1.88-6.73-3.92,2.18-2.48,3.48-5.48,3.89-9l2.37.03c.26,0,.47,0,.62,0,.15,0,.27-.08.35-.22.09-.14.13-.31.13-.51,0-.49-.17-.74-.52-.75M174.85,25.84c-1.97-2.27-3.16-4.91-3.57-7.91h7.06c-.37,3.05-1.54,5.69-3.49,7.91"/>
      <path class="cls-2" d="M190.96,13.47c-.36,0-.54.17-.56.5-.4,2.48-.84,4.27-1.3,5.37-.46,1.11-1.01,2.02-1.64,2.72-.2.22-.37.41-.54.57-.17.16-.26.36-.26.58,0,.27.08.47.23.59.15.13.3.19.45.19.21,0,.47-.19.78-.57.32-.38.66-.85,1.03-1.41v9.31c0,.52.2.78.61.78.18,0,.34-.06.47-.17.14-.12.21-.25.21-.41v-12.04l.47-1.44c.14-.46.26-.93.36-1.41.1-.48.19-.95.27-1.4.08-.45.12-.78.12-1,0-.51-.24-.76-.71-.76"/>
      <path class="cls-2" d="M202.12,25.51c-.18,0-.34.06-.48.19-.14.13-.21.28-.21.47l.06,1.26c0,.77-.11,1.36-.33,1.8-.22.43-.5.73-.84.89-.34.16-1.13.24-2.37.24-1.17,0-1.95-.26-2.34-.77-.4-.52-.58-1.29-.56-2.32.03-1.02.03-2.44.01-4.24,1.21-.83,2.33-1.65,3.35-2.44,1.01-.8,1.95-1.6,2.81-2.41.85-.81,1.31-1.28,1.37-1.43l.1-.39c0-.19-.06-.36-.17-.52-.11-.15-.26-.23-.44-.23-.16,0-.31.08-.43.23-1.99,2-4.19,3.83-6.59,5.47l-.02.02.02-7.29c0-.5-.2-.74-.6-.74-.19,0-.35.07-.49.21-.14.14-.21.32-.21.53v13.81c0,1.22.3,2.18.91,2.9.6.71,1.81,1.06,3.63,1.06s2.98-.39,3.58-1.16c.61-.77.91-1.83.91-3.17,0-.89-.06-1.44-.18-1.64-.12-.2-.29-.31-.51-.31"/>
      <path class="cls-2" d="M222.88,24.73h-1.17l.03-1.04c0-.4-.13-.76-.4-1.08-.27-.32-.58-.48-.95-.48h-4.82v-.64s4.36,0,4.36,0c1,0,1.51-.71,1.51-2.12,0-.75-.15-1.26-.44-1.55-.3-.29-.59-.43-.89-.43h-4.53v-.73c1-.01,2.22-.02,3.63-.02,2.08,0,3.32,0,3.68.02.37.01.56-.21.56-.67,0-.49-.16-.75-.48-.78h-7.4c.02-.19.02-.5,0-.94-.02-.44-.25-.66-.69-.66s-.66.28-.66.85v.77s-3.22,0-3.22,0h-2.79s-1.25,0-1.25,0c-.15,0-.27.07-.36.2-.09.13-.13.3-.13.5,0,.46.16.69.49.69l7.26.02v.75s-3.64-.03-3.64-.03c-.76,0-1.26.04-1.48.12-.23.08-.41.26-.57.54-.16.28-.23.76-.23,1.43,0,1.38.47,2.07,1.42,2.07l4.57-.02-.04.64-5.74-.02c-.16,0-.31.08-.43.24-.12.16-.19.36-.19.6,0,.16.06.29.19.41.12.12.28.17.46.17h5.69v1.21h-6.93c-.22,0-.39.08-.49.24-.1.15-.15.3-.15.44,0,.5.18.75.55.75l7.03-.02v1.26h-5.87c-.39-.02-.59.24-.59.77,0,.45.17.68.5.68l5.96-.02v.91c.01.43-.22.64-.69.64-.33,0-.75-.1-1.24-.3-.5-.2-.86-.3-1.07-.3-.24,0-.43.1-.55.29-.13.19-.19.39-.19.59s.05.35.16.46c.1.11.5.27,1.18.49.68.21,1.27.32,1.76.32.61,0,1.11-.14,1.48-.41.38-.28.56-.69.55-1.24-.01-.55-.02-1.04-.01-1.48h-.02,2.23s2.33-.02,2.33-.02c.33,0,.62-.08.86-.25.24-.17.43-.38.57-.63.13-.25.2-.52.2-.79l-.02-.99c.11.01.49.02,1.16.02.42,0,.63-.22.63-.66,0-.21-.06-.39-.18-.55-.12-.16-.27-.24-.47-.23M215.58,18.81h4.37c.16,0,.24.19.24.56,0,.41-.11.61-.32.61l-4.29.02v-1.2M214.23,20.01h-4.46c-.15,0-.23-.14-.23-.43,0-.06,0-.2.03-.43.02-.23.14-.34.35-.34h4.31v1.2M220.44,26.72c0,.41-.12.61-.37.61l-4.48.02v-1.12h4.84v.49M220.42,24.03v.68h-4.84v-1.11h4.48c.26,0,.39.14.39.42h-.02Z"/>
      <path class="cls-2" d="M243.13,22.39c-1.63-.5-2.74-.98-3.32-1.42.89-.95,1.53-2.26,1.91-3.95.36,0,.72,0,1.06,0,.34,0,.51-.22.51-.68,0-.53-.17-.79-.51-.8l-5.66-.02c.09-.51.14-.92.14-1.22,0-.45-.25-.68-.74-.68-.39,0-.6.16-.63.47,0,2-.76,3.65-2.3,4.95-.14.11-.2.26-.2.44,0,.19.06.36.2.52.13.15.28.23.47.23.45,0,1.11-.63,1.95-1.89.46,1.06,1,1.92,1.6,2.59-.64.44-1.56.88-2.73,1.32-.22.1-.34.3-.34.61,0,.52.22.77.66.77.25,0,.75-.18,1.49-.56.74-.37,1.42-.76,2.04-1.17.75.59,1.58,1.04,2.48,1.36.9.32,1.45.49,1.66.49.18,0,.33-.08.45-.25.12-.17.18-.36.18-.58,0-.34-.12-.52-.36-.53M236.97,17.01h3.34c-.29,1.32-.81,2.33-1.58,3.02-.79-.76-1.38-1.76-1.76-3.02"/>
      <path class="cls-2" d="M233.21,22.84c0,.32-.29,1.07-.86,2.26l-.08.38c0,.2.07.36.21.5.14.13.3.2.48.2.26,0,.48-.19.68-.57.2-.38.39-.85.57-1.41.18-.56.27-1.13.27-1.72,0-1.05-.47-1.57-1.43-1.57l-.78.02-.64-1.07c1.08-.79,1.85-1.57,2.29-2.34.44-.77.67-1.36.67-1.77,0-.29-.11-.56-.31-.79-.21-.24-.41-.36-.61-.36l-6.32.04-.36.22c-.1.14-.15.3-.15.48,0,.32.16.56.46.72h5.9c-.56,1.09-1.37,1.98-2.43,2.67l-1.55-1.76c-.1-.12-.25-.18-.44-.18-.18,0-.34.06-.48.19-.14.13-.21.28-.21.46,0,.19.06.34.18.45.12.11.45.47.98,1.09.53.61,1.01,1.25,1.45,1.91-.49.02-1.06.03-1.69.03h-1.31c-.39-.01-.63.02-.72.09l-.22.28-.08.39c0,.44.18.67.53.69l3.08-.02c-.69,1.55-1.83,3.09-3.41,4.6-.11.11-.16.26-.16.44,0,.2.06.37.19.53.12.15.27.23.44.23.56,0,1.6-1.13,3.08-3.4.01.59.02,2.31.02,5.16,0,.42-.23.63-.69.63-.51,0-1.18-.18-2.01-.55l-.22-.05c-.18,0-.33.09-.46.26-.13.17-.19.36-.19.58,0,.19.05.34.15.44.1.1.45.24,1.06.42.61.18,1.08.27,1.43.27.65,0,1.18-.15,1.6-.46.42-.31.63-.74.63-1.3v-7.8c.7,0,1.11.02,1.24.06.13.05.2.18.2.41"/>
      <path class="cls-2" d="M242.1,24.78c-.22-.26-.79-.37-1.72-.35-.93.02-1.54.02-1.83,0v-1.08c0-.48-.2-.72-.61-.72-.18,0-.35.07-.49.21-.15.14-.22.31-.22.51l.04,1.1-2.57-.02c-.39,0-.59.26-.59.78,0,.45.17.67.51.67h2.56c-.21,2.55-1.77,4.12-4.68,4.7-.18.06-.28.25-.28.56,0,.56.24.83.72.83.29,0,.98-.22,2.08-.67,1.09-.44,1.92-1.1,2.48-1.95.56-.86.9-2.01,1.03-3.47h2.39c.22,0,.33.19.33.56,0,1.38-.02,2.3-.07,2.74-.05.44-.2.78-.47,1.01-.27.23-.63.34-1.08.34-.23,0-.5-.08-.81-.24-.31-.16-.51-.24-.61-.24-.17,0-.31.09-.43.27-.11.18-.17.39-.17.62,0,.27.08.48.25.62v.02c.65.27,1.27.41,1.86.41.82,0,1.52-.29,2.09-.86.58-.57.86-1.81.86-3.7,0-1.06-.04-1.7-.12-1.94-.08-.23-.23-.48-.45-.74"/>
      <path class="cls-2" d="M260.47,23.56c1.1,0,2.02-.04,2.78-.09.15-.18.22-.37.22-.58,0-.24-.09-.46-.28-.67l-3.93-.06c1.76-1.17,2.83-2.13,3.22-2.85-.12-.44-.31-.69-.54-.75.36-.24.54-.81.54-1.69l-.05-1.22c-.01-.36-.07-.61-.17-.78-.1-.16-.24-.32-.42-.48s-.33-.24-.45-.24l-11.78-.02-.22.03-.21.03c-.63.35-.95.97-.95,1.87,0,.18.01.46.04.83.03.37.04.64.04.8,0,.22.13.47.39.76.26.28.48.42.66.42l5.14.09-.02.72h-5.56c-.22,0-.4.07-.53.21-.13.13-.2.31-.2.5,0,.3.15.53.44.69l5.85-.02v1.11c-4.79,0-7.22.03-7.28.09-.15.16-.22.34-.22.56,0,.28.12.51.36.67l6.99.07c-2.48,1.3-4.9,2.27-7.25,2.94-.15.15-.23.32-.23.52,0,.28.12.51.37.7.78-.1,1.8-.36,3.06-.8l.04,2.69c.02.25.03.49.04.73.01.23.14.49.37.75.23.27.47.42.73.46.26.04.62.06,1.1.06l1.78-.03,2.29.02c2.35,0,3.57-.03,3.68-.1.32-.21.57-.45.72-.73.16-.28.24-1.06.24-2.33,0-.61-.01-1.29-.05-2.04-.03-.76-.08-1.18-.14-1.28l-.25-.35-.33-.34-.32-.15-4.33-.06,1.27-.68h3.35M260.11,19.73l-4.37-.11.02-.7,5.46-.05-1.06.94-.05-.08M258.19,15.56l2.88.02c.1.1.15.33.15.69,0,.82-.06,1.23-.18,1.23h-2.85v-1.94M252.43,17.5l-2.77-.04c-.08-.12-.12-.34-.12-.65l.03-.95c0-.2.05-.3.13-.3h2.73v1.94M253.76,15.56h3.1v1.94h-3.1v-1.94ZM259.79,30.15l-8.11-.06c-.09-.16-.13-.42-.13-.79l.03-.83v-.02h8.34l.05.96c0,.38-.06.62-.18.74M259.85,25.73c.09.09.13.27.13.56,0,.1-.01.33-.04.69h-8.36v-.54l1.75-.83,6.52.11M255.8,22.2v-1.09h2.57c-.93.74-1.7,1.12-2.29,1.12l-.28-.03Z"/>
    </g>
  </g>
</svg>